<svg width="253" height="56" viewBox="0 0 253 56" fill="none" xmlns="http://www.w3.org/2000/svg">
<g clip-path="url(#clip0_291_4264)">
<path d="M94.2349 14.573L95.5842 13.1113C96.1588 13.686 97.4893 14.8666 99.7069 14.8666C101.718 14.8666 102.412 14.0483 102.412 13.2175C102.412 11.9682 101.094 11.7433 100.057 11.4622C98.8636 11.1312 97.9578 11.0125 96.8647 10.544C95.2531 9.86311 94.7846 8.70126 94.7846 7.7268C94.7846 5.50304 97.177 4.30371 99.482 4.30371C101.35 4.30371 103.174 4.97833 104.279 5.95279L103.236 7.51442C102.368 6.85229 101.137 6.22764 99.4945 6.22764C98.1452 6.22764 96.9084 6.62741 96.9084 7.67058C96.9084 8.53885 97.6518 8.90739 99.6132 9.35714C101.468 9.77566 104.535 10.3816 104.535 13.2487C104.535 15.8348 101.918 16.8592 99.7881 16.8592C96.6148 16.8592 94.7784 15.1914 94.2224 14.5667" fill="#000"/>
<path d="M119.465 4.50977V16.6592H117.366V8.17647L113.468 13.5485L109.583 8.15773V16.6592H107.502V4.50977H109.426L113.449 10.1754L117.472 4.50977H119.465Z" fill="#000"/>
<path d="M95.0469 25.3545H104.179V27.3221H97.1644V30.1018H102.362V32.082H97.1644V35.5238H104.267V37.504H95.0469V25.3545Z" fill="#000"/>
<path d="M107.246 25.3545H109.17L115.704 33.8685L115.717 25.3545H117.797V37.504H115.892L109.32 28.9525V37.504H107.246V25.3545Z" fill="#000"/>
<path d="M124.312 27.3346H120.495V25.3545H130.252V27.3346H126.442V37.504H124.312V27.3346Z" fill="#000"/>
<path d="M132.957 25.3545H142.089V27.3221H135.068V30.1018H140.272V32.082H135.068V35.5238H142.177V37.504H132.957V25.3545Z" fill="#000"/>
<path d="M145.15 25.3545H151.334C153.97 25.3545 154.801 27.3721 154.801 29.0025C154.801 30.3767 154.195 31.9883 152.446 32.4943L155.444 37.4977H153.089L150.266 32.6692H147.268V37.4977H145.15V25.3545ZM151.128 30.689C152.171 30.689 152.69 30.0144 152.69 29.0025C152.69 27.9905 152.19 27.3534 151.216 27.3534H147.261V30.689H151.122H151.128Z" fill="#000"/>
<path d="M160.436 27.3346H156.619V25.3545H166.376V27.3346H162.566V37.504H160.436V27.3346Z" fill="#000"/>
<path d="M172.129 25.2861H173.984L179.631 37.4981H177.376L176.095 34.6684H169.924L168.606 37.4981H166.476L172.123 25.2861H172.129ZM175.215 32.7382L173.047 27.9784L170.83 32.7382H175.215Z" fill="#000"/>
<path d="M184.054 25.3545H181.936V37.4977H184.054V25.3545Z" fill="#000"/>
<path d="M187.739 25.3545H189.663L196.191 33.8685L196.209 25.3545H198.289V37.504H196.384L189.813 28.9525V37.504H187.739V25.3545Z" fill="#000"/>
<path d="M213.812 25.3545V37.504H211.719V29.0212L207.815 34.3932L203.936 29.0025V37.504H201.856V25.3545H203.78L207.803 31.0201L211.819 25.3545H213.812Z" fill="#000"/>
<path d="M217.379 25.3545H226.511V27.3221H219.496V30.1018H224.693V32.082H219.496V35.5238H226.599V37.504H217.379V25.3545Z" fill="#000"/>
<path d="M229.578 25.3545H231.502L238.036 33.8685L238.048 25.3545H240.128V37.504H238.223L231.658 28.9525V37.504H229.578V25.3545Z" fill="#000"/>
<path d="M246.644 27.3346H242.833V25.3545H252.59V27.3346H248.774V37.504H246.644V27.3346Z" fill="#000"/>
<path d="M22.0315 55.9996C19.4392 55.9996 17.003 54.9877 15.1728 53.1512L1.51166 39.4588C0.530954 38.4781 0 37.1726 0 35.7859C0 34.3992 0.549693 33.0999 1.5304 32.1192C3.54177 30.1203 6.81495 30.1328 8.81383 32.1379L24.9611 48.3226C26.1479 49.5157 27.6283 50.309 29.2399 50.6339C31.1951 47.3857 30.7766 43.1006 27.9844 40.3021L8.85756 21.1253C5.07217 17.3274 5.07217 11.1559 8.85756 7.35801C10.694 5.52154 13.1302 4.50336 15.7225 4.50336C15.76 4.50336 15.7974 4.50336 15.8349 4.50336C16.216 3.90369 16.6719 3.33526 17.1904 2.8168C20.9758 -0.956098 27.1224 -0.943605 30.8953 2.83554L44.6563 16.6341L59.0795 2.19839C60.9785 0.299451 63.6957 -0.243996 66.1756 0.780433C68.0933 1.57374 69.4487 3.12912 69.9734 5.04055C71.8037 4.04111 73.9837 3.91618 76.0138 4.75322C78.7186 5.87134 80.4051 8.39493 80.4051 11.3308V34.0369C80.4051 37.2101 77.8316 39.7899 74.6646 39.7899C71.4976 39.7899 68.924 37.2101 68.924 34.0369V7.48294L55.9938 20.4507C54.7444 21.7 53.0829 22.3934 51.3214 22.3934C49.5536 22.3934 47.892 21.7063 46.6427 20.4507L44.6563 18.4643L43.1384 19.9885C40.0402 23.093 36.3735 22.9993 33.1315 19.7448L21.6879 8.27C20.2949 6.87078 18.4959 6.02126 16.5595 5.83386C15.9474 7.01445 15.6225 8.33871 15.6163 9.71295C15.6163 11.9742 16.4908 14.098 18.0837 15.6971L37.8039 35.4673C41.5893 39.2652 41.5893 45.443 37.8039 49.2409C35.9674 51.0836 33.525 52.0955 30.9327 52.0955C30.5704 52.0955 30.2144 52.0768 29.8646 52.0393C29.5772 52.4328 29.2587 52.8076 28.9026 53.1574C27.0724 54.9939 24.63 56.0059 22.0377 56.0059L22.0315 55.9996ZM5.16587 31.9131C4.17892 31.9131 3.19197 32.2878 2.43614 33.0374C1.69905 33.7683 1.28678 34.749 1.28678 35.7921C1.28678 36.8353 1.68656 37.816 2.42365 38.5531L16.0785 52.2455C17.6651 53.8383 19.7827 54.7191 22.0315 54.7191C24.2802 54.7191 26.3915 53.8383 27.9844 52.2455C28.1405 52.0893 28.2842 51.9331 28.4279 51.7645C26.7913 51.3272 25.2859 50.4652 24.0553 49.2346L7.90809 33.0499C7.15226 32.2941 6.15906 31.9131 5.16587 31.9131ZM30.6204 50.8025C30.7204 50.8025 30.8203 50.8025 30.9202 50.8025C33.1752 50.8025 35.2928 49.9218 36.8857 48.3226C40.1713 45.0245 40.1713 39.6587 36.8857 36.3606L17.1654 16.5904C15.3289 14.7476 14.3233 12.299 14.3233 9.70045C14.3233 8.33871 14.6044 7.01445 15.1353 5.80263C13.1052 5.94005 11.2125 6.80207 9.7633 8.25751C6.47764 11.5494 6.47764 16.9152 9.7633 20.2071L28.8901 39.3839C31.9634 42.4634 32.5381 47.1171 30.6204 50.79V50.8025ZM70.1921 6.40229C70.1983 6.53972 70.2046 6.68339 70.2046 6.82081V34.0369C70.2046 36.498 72.2035 38.5031 74.6583 38.5031C77.1132 38.5031 79.1121 36.498 79.1121 34.0369V11.3308C79.1121 8.92589 77.7316 6.85829 75.5141 5.9463C73.7089 5.20296 71.76 5.39036 70.1858 6.40229H70.1921ZM45.5621 17.5523L47.5485 19.545C48.5542 20.5569 49.8909 21.1066 51.3151 21.1066C52.7393 21.1066 54.0761 20.5506 55.0818 19.545L68.2869 6.30235C68.4618 6.12745 68.6429 5.96504 68.8241 5.80888C68.4993 4.08484 67.3562 2.66063 65.6758 1.96727C63.6832 1.14273 61.5032 1.57999 59.979 3.10414L45.5558 17.5523H45.5621ZM17.3091 4.63453C19.3017 4.95935 21.1382 5.90257 22.5936 7.35801L34.0373 18.8329C36.7795 21.5813 39.6216 21.6875 42.2264 19.0765L43.7506 17.5523L29.9833 3.74753C26.7101 0.468107 21.3818 0.455614 18.0962 3.72879C17.8088 4.01613 17.5465 4.31596 17.3091 4.62828V4.63453Z" fill="#000"/>
<path d="M74.6582 55.3439C71.2726 55.3439 68.5242 52.583 68.5242 49.1974C68.5242 45.8117 71.2789 43.0508 74.6582 43.0508C78.0376 43.0508 80.7923 45.8117 80.7923 49.1974C80.7923 52.583 78.0376 55.3439 74.6582 55.3439ZM74.6582 44.3313C71.9847 44.3313 69.8047 46.5114 69.8047 49.1974C69.8047 51.8834 71.9785 54.0634 74.6582 54.0634C77.338 54.0634 79.5055 51.8834 79.5055 49.1974C79.5055 46.5114 77.3318 44.3313 74.6582 44.3313Z" fill="#000"/>
</g>
<defs>
<clipPath id="clip0_291_4264">
<rect width="252.59" height="56" fill="white"/>
</clipPath>
</defs>
</svg>